<svg width="15" height="20" viewBox="0 0 15 20" fill="none" xmlns="http://www.w3.org/2000/svg">
<path d="M7.5 10C7.5 9.11594 7.86875 8.2681 8.52513 7.64298C9.1815 7.01786 10.0717 6.66667 11 6.66667C11.9283 6.66667 12.8185 7.01786 13.4749 7.64298C14.1313 8.2681 14.5 9.11594 14.5 10C14.5 10.8841 14.1313 11.7319 13.4749 12.357C12.8185 12.9821 11.9283 13.3333 11 13.3333C10.0717 13.3333 9.1815 12.9821 8.52513 12.357C7.86875 11.7319 7.5 10.8841 7.5 10ZM0.5 16.6667C0.5 15.7826 0.868749 14.9348 1.52513 14.3096C2.1815 13.6845 3.07174 13.3333 4 13.3333H7.5V16.6667C7.5 17.5507 7.13125 18.3986 6.47487 19.0237C5.8185 19.6488 4.92826 20 4 20C3.07174 20 2.1815 19.6488 1.52513 19.0237C0.868749 18.3986 0.5 17.5507 0.5 16.6667ZM7.5 0V6.66667H11C11.9283 6.66667 12.8185 6.31548 13.4749 5.69036C14.1313 5.06523 14.5 4.21739 14.5 3.33333C14.5 2.44928 14.1313 1.60143 13.4749 0.976311C12.8185 0.35119 11.9283 0 11 0L7.5 0ZM0.5 3.33333C0.5 4.21739 0.868749 5.06523 1.52513 5.69036C2.1815 6.31548 3.07174 6.66667 4 6.66667H7.5V0H4C3.07174 0 2.1815 0.35119 1.52513 0.976311C0.868749 1.60143 0.5 2.44928 0.5 3.33333ZM0.5 10C0.5 10.8841 0.868749 11.7319 1.52513 12.357C2.1815 12.9821 3.07174 13.3333 4 13.3333H7.5V6.66667H4C3.07174 6.66667 2.1815 7.01786 1.52513 7.64298C0.868749 8.2681 0.5 9.11594 0.5 10Z" fill="#ABB2BF"/>
</svg>
