<svg width="22" height="20" viewBox="0 0 22 20" fill="none" xmlns="http://www.w3.org/2000/svg">
<path d="M11.3616 0C5.61212 0 0.955322 4.58819 0.955322 10.2529C0.955322 14.7899 3.93411 18.6219 8.0706 19.9804C8.59091 20.0701 8.78603 19.7625 8.78603 19.4934C8.78603 19.2499 8.77302 18.4425 8.77302 17.5838C6.15845 18.058 5.48204 16.9558 5.27392 16.3791C5.15685 16.0843 4.64954 15.1743 4.20728 14.9308C3.84306 14.7386 3.32274 14.2644 4.19427 14.2516C5.01376 14.2388 5.59911 14.9949 5.79423 15.3025C6.73079 16.8533 8.22669 16.4175 8.82505 16.1484C8.9161 15.4819 9.18927 15.0334 9.48845 14.777C7.17306 14.5207 4.7536 13.6364 4.7536 9.71466C4.7536 8.59965 5.15685 7.67689 5.82024 6.95918C5.71618 6.70286 5.35196 5.65193 5.92431 4.24215C5.92431 4.24215 6.79583 3.97301 8.78603 5.29308C9.61853 5.06239 10.5031 4.94704 11.3876 4.94704C12.2721 4.94704 13.1567 5.06239 13.9892 5.29308C15.9793 3.9602 16.8509 4.24215 16.8509 4.24215C17.4232 5.65193 17.059 6.70286 16.9549 6.95918C17.6183 7.67689 18.0216 8.58684 18.0216 9.71466C18.0216 13.6492 15.5891 14.5207 13.2737 14.777C13.6509 15.0975 13.9761 15.7126 13.9761 16.6738C13.9761 18.0452 13.9631 19.1474 13.9631 19.4934C13.9631 19.7625 14.1583 20.0829 14.6786 19.9804C16.7445 19.2935 18.5397 17.9854 19.8115 16.2403C21.0832 14.4953 21.7675 12.4012 21.7678 10.2529C21.7678 4.58819 17.111 0 11.3616 0Z" fill="#ABB2BF"/>
</svg>
