<svg width="32" height="32" viewBox="0 0 32 32" fill="none" xmlns="http://www.w3.org/2000/svg">
<path d="M15.3616 6C9.61212 6 4.95532 10.5882 4.95532 16.2529C4.95532 20.7899 7.93411 24.6219 12.0706 25.9804C12.5909 26.0701 12.786 25.7625 12.786 25.4934C12.786 25.2499 12.773 24.4425 12.773 23.5838C10.1584 24.058 9.48204 22.9558 9.27392 22.3791C9.15685 22.0843 8.64954 21.1743 8.20728 20.9308C7.84306 20.7386 7.32274 20.2644 8.19427 20.2516C9.01376 20.2388 9.59911 20.9949 9.79423 21.3025C10.7308 22.8533 12.2267 22.4175 12.825 22.1484C12.9161 21.4819 13.1893 21.0334 13.4884 20.777C11.1731 20.5207 8.7536 19.6364 8.7536 15.7147C8.7536 14.5997 9.15685 13.6769 9.82024 12.9592C9.71618 12.7029 9.35196 11.6519 9.92431 10.2422C9.92431 10.2422 10.7958 9.97301 12.786 11.2931C13.6185 11.0624 14.5031 10.947 15.3876 10.947C16.2721 10.947 17.1567 11.0624 17.9892 11.2931C19.9793 9.9602 20.8509 10.2422 20.8509 10.2422C21.4232 11.6519 21.059 12.7029 20.9549 12.9592C21.6183 13.6769 22.0216 14.5868 22.0216 15.7147C22.0216 19.6492 19.5891 20.5207 17.2737 20.777C17.6509 21.0975 17.9761 21.7126 17.9761 22.6738C17.9761 24.0452 17.9631 25.1474 17.9631 25.4934C17.9631 25.7625 18.1583 26.0829 18.6786 25.9804C20.7445 25.2935 22.5397 23.9854 23.8115 22.2403C25.0832 20.4953 25.7675 18.4012 25.7678 16.2529C25.7678 10.5882 21.111 6 15.3616 6Z" fill="#ABB2BF"/>
</svg>
